<?xml version="1.0" standalone="no"?>
<!DOCTYPE svg PUBLIC "-//W3C//DTD SVG 20010904//EN"
 "http://www.w3.org/TR/2001/REC-SVG-20010904/DTD/svg10.dtd">
<svg version="1.0" xmlns="http://www.w3.org/2000/svg"
 width="185.000000pt" height="185.000000pt" viewBox="0 0 185.000000 185.000000"
 preserveAspectRatio="xMidYMid meet">
<metadata>
Created by potrace 1.11, written by Peter Selinger 2001-2013
</metadata>
<g transform="translate(0.000000,185.000000) scale(0.100000,-0.100000)"
fill="#000000" stroke="none">
<path d="M746 1756 c-164 -69 -236 -193 -236 -407 l0 -109 70 0 70 0 0 115 c0
125 8 158 55 213 44 52 99 76 175 76 76 0 131 -24 175 -76 51 -60 55 -82 55
-288 l0 -190 -375 0 -375 0 0 -505 0 -505 520 0 520 0 0 505 0 505 -74 0 -75
0 -3 203 c-3 182 -6 208 -26 259 -32 80 -99 150 -180 190 -57 28 -79 33 -152
36 -72 2 -94 -1 -144 -22z m208 -1007 c73 -57 74 -165 1 -213 -25 -16 -25 -18
-19 -101 l7 -85 -63 0 -63 0 7 85 c6 83 6 85 -19 101 -73 48 -72 156 1 213 36
29 112 29 148 0z"/>
</g>
</svg>
